<svg xmlns="http://www.w3.org/2000/svg" id="Ebene_2" viewBox="0 0 270 226"><defs><style>.cls-1{fill:#4e000a}.cls-1,.cls-2,.cls-3,.cls-4,.cls-5{fill-rule:evenodd}.cls-2{fill:#1a007f}.cls-3{fill:#ff9396}.cls-4{fill:#ff536a}.cls-5{fill:#002dc8}</style></defs><g id="Ebene_1-2"><path d="m87.49 183.82 25.45-53.53c-19.44-4.13-39-16.15-50.06-30.77l-26.61 55.93c14.79 12.54 32.55 22.4 51.22 28.37" class="cls-2"/><path d="M193.71 97.92c-12.79 15.67-30.54 27.29-49.54 31.81l25.37 53.37c18.52-6.25 35.83-16.35 50.78-29.29l-26.61-55.89Z" class="cls-1"/><path d="m36.27 155.46-13.31 27.97c-6.77 14.22-1.68 31.73 12.27 39.14 14.79 7.85 32.99 1.72 40.12-13.22l12.14-25.52a151.785 151.785 0 0 1-51.22-28.37" class="cls-2"/><path d="M246.54 36.86c-1.89-.38-3.81-.57-5.74-.57-13.88 0-25.94 9.88-28.65 23.49-2.81 14.02-9.38 27.08-18.44 38.18l26.57 55.93c24.53-21.28 42.65-50.24 49.14-82.66 3.17-15.87-7.09-31.25-22.89-34.38" class="cls-3"/><path d="M144.17 129.73c-5.69 1.36-11.5 2.08-17.32 2.08-4.53 0-9.22-.52-13.91-1.52-19.44-4.13-39-16.15-50.06-30.77-2.77-3.65-5.01-7.45-6.57-11.34-6.05-14.94-23.09-22.16-38.04-16.15C3.32 78.09-3.89 95.12 2.12 110.06c6.85 16.99 18.96 32.57 34.15 45.4a151.776 151.776 0 0 0 51.18 28.37c12.87 4.13 26.21 6.41 39.36 6.41 14.59 0 28.98-2.52 42.69-7.13l-25.33-53.37Z" class="cls-5"/><path d="m234.31 183.3-14.03-29.49-26.57-55.89-.04.04s0-.04.04-.04l-38.64-81.25C150.24 6.51 139.95 0 128.7 0c-11.26 0-21.52 6.49-26.37 16.67l-39.4 82.86c11.06 14.62 30.62 26.64 50.06 30.77l12.75-26.76c1.2-2.52 4.81-2.52 6.01 0l12.47 26.2h.08-.08l25.37 53.37 12.47 26.2c4.83 10.18 15.14 16.69 26.41 16.67 2.61 0 5.21-.36 7.78-1.08 17.6-4.85 25.93-25.08 18.08-41.59" class="cls-4"/><path d="m87.49 183.82 25.45-53.53c-19.44-4.13-39-16.15-50.06-30.77l-26.61 55.93c14.79 12.54 32.55 22.4 51.22 28.37" class="cls-2"/><path d="M193.71 97.92c-12.79 15.67-30.54 27.29-49.54 31.81l25.37 53.37c18.52-6.25 35.83-16.35 50.78-29.29l-26.61-55.89Z" class="cls-1"/><path d="m36.27 155.46-13.31 27.97c-6.77 14.22-1.68 31.73 12.27 39.14 14.79 7.85 32.99 1.72 40.12-13.22l12.14-25.52a151.785 151.785 0 0 1-51.22-28.37" class="cls-2"/><path d="M246.54 36.86c-1.89-.38-3.81-.57-5.74-.57-13.88 0-25.94 9.88-28.65 23.49-2.81 14.02-9.38 27.08-18.44 38.18l26.57 55.93c24.53-21.28 42.65-50.24 49.14-82.66 3.17-15.87-7.09-31.25-22.89-34.38" class="cls-3"/><path d="M144.17 129.73c-5.69 1.36-11.5 2.08-17.32 2.08-4.53 0-9.22-.52-13.91-1.52-19.44-4.13-39-16.15-50.06-30.77-2.77-3.65-5.01-7.45-6.57-11.34-6.05-14.94-23.09-22.16-38.04-16.15C3.32 78.09-3.89 95.12 2.12 110.06c6.85 16.99 18.96 32.57 34.15 45.4a151.776 151.776 0 0 0 51.18 28.37c12.87 4.13 26.21 6.41 39.36 6.41 14.59 0 28.98-2.52 42.69-7.13l-25.33-53.37Z" class="cls-5"/><path d="m234.31 183.3-14.03-29.49-26.57-55.89-.04.04s0-.04.04-.04l-38.64-81.25C150.24 6.51 139.95 0 128.7 0c-11.26 0-21.53 6.49-26.38 16.67l-39.4 82.86c11.06 14.62 30.62 26.64 50.06 30.77l12.75-26.76c1.2-2.52 4.81-2.52 6.01 0l12.47 26.2h.08-.08l25.37 53.37 12.47 26.2c4.83 10.18 15.14 16.69 26.41 16.67 2.61 0 5.21-.36 7.78-1.08 17.6-4.85 25.93-25.08 18.08-41.59" class="cls-4"/></g></svg>